HIERARCHY
ROOT Hips
{
  OFFSET 179.979 97.3047 303.174
  CHANNELS 6 Xposition Yposition Zposition Zrotation Xrotation Yrotation
  JOINT Spine
  {
    OFFSET 0.000859786 9.92346 -1.22733
    CHANNELS 3 Zrotation Xrotation Yrotation
    JOINT Spine1
    {
      OFFSET 0 11.732 0
      CHANNELS 3 Zrotation Xrotation Yrotation
      JOINT Spine2
      {
        OFFSET 0 13.4588 0
        CHANNELS 3 Zrotation Xrotation Yrotation
        JOINT Neck
        {
          OFFSET 2.54812e-05 15.0278 0.877907
          CHANNELS 3 Zrotation Xrotation Yrotation
          JOINT Head
          {
            OFFSET 0 10.3218 3.14243
            CHANNELS 3 Zrotation Xrotation Yrotation
            End Site
            {
              OFFSET 0 0 0
            }
          }
        }
        JOINT LeftShoulder
        {
          OFFSET 6.10582 9.10629 0.757062
          CHANNELS 3 Zrotation Xrotation Yrotation
          JOINT LeftArm
          {
            OFFSET 0 12.9223 0
            CHANNELS 3 Zrotation Xrotation Yrotation
            JOINT LeftForeArm
            {
              OFFSET 0 27.4047 0
              CHANNELS 3 Zrotation Xrotation Yrotation
              JOINT LeftHand
              {
                OFFSET -1.28204e-05 27.6145 0
                CHANNELS 3 Zrotation Xrotation Yrotation
                End Site
                {
                  OFFSET 0 0 0
                }
              }
            }
          }
        }
        JOINT RightShoulder
        {
          OFFSET -6.1057 9.10638 0.757076
          CHANNELS 3 Zrotation Xrotation Yrotation
          JOINT RightArm
          {
            OFFSET 0 12.9223 0
            CHANNELS 3 Zrotation Xrotation Yrotation
            JOINT RightForeArm
            {
              OFFSET 0 27.4047 0
              CHANNELS 3 Zrotation Xrotation Yrotation
              JOINT RightHand
              {
                OFFSET 1.28428e-05 27.6145 1.44975e-05
                CHANNELS 3 Zrotation Xrotation Yrotation
                End Site
                {
                  OFFSET 0 0 0
                }
              }
            }
          }
        }
      }
    }
  }
  JOINT LeftUpLeg
  {
    OFFSET 9.12387 -6.65719 -0.0554031
    CHANNELS 3 Zrotation Xrotation Yrotation
    JOINT LeftLeg
    {
      OFFSET 0 40.5994 0
      CHANNELS 3 Zrotation Xrotation Yrotation
      JOINT LeftFoot
      {
        OFFSET 0 42.099 0
        CHANNELS 3 Zrotation Xrotation Yrotation
        JOINT LeftToeBase
        {
          OFFSET 0 15.7216 0
          CHANNELS 3 Zrotation Xrotation Yrotation
          End Site
          {
            OFFSET 0 0 0
          }
        }
      }
    }
  }
  JOINT RightUpLeg
  {
    OFFSET -9.12503 -6.6556 -0.0553527
    CHANNELS 3 Zrotation Xrotation Yrotation
    JOINT RightLeg
    {
      OFFSET 0 40.5994 0
      CHANNELS 3 Zrotation Xrotation Yrotation
      JOINT RightFoot
      {
        OFFSET 0 42.099 0
        CHANNELS 3 Zrotation Xrotation Yrotation
        JOINT RightToeBase
        {
          OFFSET 0 15.7216 0
          CHANNELS 3 Zrotation Xrotation Yrotation
          End Site
          {
            OFFSET 0 0 0
          }
        }
      }
    }
  }
}
MOTION
Frames:	10
Frame Time:	0.0333333
188.883 98.6915 -498.107 1.55337 -3.47111 0.945155 -0.502397 -5.99792 -0.06914 -0.965577 1.90281 -0.0115329 -0.962744 8.49728 -0.0118589 6.50616 23.1792 -2.68083 -5.07304 -15.2386 0.432281 -86.0701 -17.2511 90.0016 25.1755 -4.26935 -2.91272 0.837921 -12.4862 -0.448046 -14.2612 5.24962 9.56033 90.6925 -12.7813 -90.4915 -13.79 -0.889299 9.56619 -8.26936 -17.4331 0.711392 17.0483 -6.30064 -8.53536 -178.964 -6.72367 1.98466 -3.76438 -5.66647 -2.67406 11.7052 74.373 -8.70976 -0.965267 26.367 -3.60229 177.616 -3.63208 1.01199 2.3941 -13.3435 2.53576 -13.8647 77.5895 10.7523 0.963537 26.3682 3.55537 
188.884 98.6915 -498.115 1.55477 -3.46831 0.969113 -0.502397 -5.99792 -0.06914 -0.961197 1.90651 -0.0125427 -0.958219 8.501 -0.0128457 6.48467 23.1929 -2.67309 -5.05466 -15.2355 0.425362 -86.0889 -17.2159 90.0036 25.1717 -4.20325 -3.03652 0.85784 -12.5321 -0.448125 -14.2435 5.49916 9.27603 90.6927 -12.7775 -90.4914 -13.8089 -0.889318 9.6032 -8.24565 -17.3651 0.711128 17.0595 -6.39989 -8.60898 -178.962 -6.70434 2.00826 -3.76486 -5.67687 -2.67411 11.7011 74.3658 -8.70582 -0.965267 26.367 -3.60229 177.617 -3.62766 1.01973 2.39614 -13.3434 2.54621 -13.8858 77.5821 10.7716 0.963537 26.3682 3.55537 
188.886 98.6916 -498.133 1.55803 -3.46095 1.02517 -0.502397 -5.99792 -0.06914 -0.95204 1.91511 -0.0225176 -0.947924 8.50959 -0.0229193 6.42532 23.2135 -2.64988 -5.00668 -15.2161 0.416142 -86.1323 -17.1698 90.0065 25.157 -4.1707 -3.15518 0.9014 -12.5249 -0.448113 -14.1826 6.11389 8.82473 90.6823 -12.7546 -90.4935 -13.8479 -0.887004 9.68277 -8.20554 -17.221 0.710571 17.0431 -6.71164 -8.59627 -178.957 -6.66955 2.06353 -3.76562 -5.69289 -2.67418 11.6933 74.352 -8.69825 -0.965267 26.367 -3.60229 177.617 -3.61178 1.03648 2.40626 -13.3431 2.57186 -13.9414 77.5647 10.8265 0.963537 26.3682 3.55537 
188.888 98.6917 -498.152 1.5613 -3.45128 1.08229 -0.502397 -5.99792 -0.06914 -0.947118 1.92178 -0.0335386 -0.941715 8.51627 -0.0340384 6.39431 23.2325 -2.63845 -4.97436 -15.1877 0.414255 -86.1622 -17.1337 90.0087 25.1965 -4.09477 -3.19474 0.889543 -12.6157 -0.448271 -14.1472 6.57571 8.95572 90.6707 -12.7256 -90.4959 -13.8646 -0.872114 9.69155 -8.20876 -17.1474 0.710289 17.0677 -6.81149 -8.60454 -178.953 -6.62926 2.11918 -3.76632 -5.70795 -2.67425 11.6829 74.3336 -8.68824 -0.965267 26.367 -3.60229 177.618 -3.59427 1.04904 2.41608 -13.3429 2.60081 -14.0034 77.5462 10.8924 0.963537 26.3682 3.55537 
188.889 98.6916 -498.165 1.56401 -3.43887 1.13126 -0.502397 -5.99792 -0.06914 -0.949466 1.92474 -0.0410946 -0.9432 8.51924 -0.0416885 6.42337 23.2515 -2.64252 -4.97692 -15.1519 0.424134 -86.1642 -17.1033 90.0105 25.2092 -4.06798 -3.18928 0.892751 -12.6627 -0.45131 -14.1391 6.84152 9.09892 90.6765 -12.7026 -90.4944 -13.8619 -0.866331 9.62928 -8.23298 -17.1624 0.710346 17.084 -6.63449 -8.59909 -178.953 -6.59627 2.16652 -3.76649 -5.71158 -2.67427 11.6715 74.3134 -8.67723 -0.965267 26.367 -3.60229 177.617 -3.57397 1.05164 2.42512 -13.344 2.63098 -14.0699 77.5293 10.9636 0.963537 26.3682 3.55537 
188.889 98.6917 -498.173 1.5657 -3.42906 1.16288 -0.502397 -5.99792 -0.06914 -0.95432 1.9278 -0.0423668 -0.947886 8.5223 -0.0429856 6.46288 23.2684 -2.64966 -4.9823 -15.112 0.438129 -86.1557 -17.0819 90.011 25.1567 -4.1524 -3.15757 0.946649 -12.6073 -0.455612 -14.1306 6.92973 9.18906 90.6872 -12.6869 -90.4919 -13.8478 -0.861471 9.58024 -8.23292 -17.2344 0.710623 17.0264 -6.36605 -8.64737 -178.957 -6.59996 2.19608 -3.76507 -5.68124 -2.67413 11.6597 74.2926 -8.66593 -0.965267 26.367 -3.60229 177.616 -3.56263 1.03881 2.43297 -13.345 2.65975 -14.1336 77.5146 11.0328 0.963537 26.3682 3.55537 
188.892 98.692 -498.176 1.56657 -3.42485 1.17642 -0.502397 -5.99792 -0.06914 -0.959464 1.93079 -0.0378731 -0.953554 8.5253 -0.0384355 6.4878 23.2856 -2.65074 -4.97668 -15.0706 0.450094 -86.1442 -17.0704 90.0112 25.138 -4.18899 -3.09468 0.953973 -12.613 -0.459442 -14.0872 6.91867 9.22802 90.6983 -12.6805 -90.4927 -13.8227 -0.859905 9.57106 -8.23052 -17.3253 0.710973 16.9826 -6.22288 -8.77205 -178.961 -6.60688 2.20736 -3.76389 -5.65612 -2.67401 11.6494 74.2743 -8.65605 -0.965267 26.367 -3.60229 177.615 -3.55725 1.01405 2.43957 -13.3461 2.68469 -14.1866 77.502 11.0919 0.963537 26.3682 3.55537 
188.894 98.6924 -498.175 1.56702 -3.42189 1.1797 -0.502397 -5.99792 -0.06914 -0.965081 1.93293 -0.0311721 -0.959949 8.52743 -0.0316786 6.49917 23.3021 -2.64766 -4.96598 -15.0304 0.460047 -86.1324 -17.0668 90.0126 25.1905 -4.11744 -3.01683 0.891044 -12.7383 -0.460306 -14.0122 6.85799 9.21345 90.7098 -12.6848 -90.4932 -13.7853 -0.866442 9.61253 -8.24601 -17.4005 0.714072 16.9562 -6.3041 -8.80194 -178.963 -6.61982 2.20678 -3.7628 -5.63286 -2.67391 11.6417 74.2605 -8.64859 -0.965267 26.367 -3.60229 177.614 -3.55788 0.989826 2.4437 -13.3473 2.70265 -14.2231 77.4931 11.1347 0.963537 26.3682 3.55537 
188.897 98.6927 -498.171 1.56712 -3.42002 1.17551 -0.502397 -5.99792 -0.06914 -0.9707 1.93422 -0.0236964 -0.966462 8.52871 -0.0241201 6.49964 23.3193 -2.64121 -4.95676 -14.9955 0.46881 -86.1221 -17.069 90.0152 25.1392 -4.20732 -2.98826 0.928392 -12.697 -0.462187 -13.9125 6.79276 9.15616 90.7207 -12.6866 -90.4936 -13.7372 -0.912233 9.61744 -8.24064 -17.4303 0.716736 16.9552 -6.31799 -8.76997 -178.966 -6.61295 2.19594 -3.76292 -5.63923 -2.671 11.6286 74.254 -8.63635 -0.965267 26.367 -3.60229 177.613 -3.56016 0.972816 2.44431 -13.3486 2.71141 -14.2368 77.4887 11.1549 0.963537 26.3682 3.55537 
188.899 98.693 -498.163 1.56693 -3.41911 1.1659 -0.502397 -5.99792 -0.06914 -0.975908 1.9352 -0.0163623 -0.972494 8.52968 -0.0167001 6.48811 23.3368 -2.62985 -4.95109 -14.9697 0.477517 -86.114 -17.0754 90.0177 25.1313 -4.22748 -3.01017 0.943335 -12.7402 -0.464858 -13.8412 6.85125 8.93728 90.7308 -12.69 -90.4933 -13.6903 -0.952723 9.61545 -8.2317 -17.4916 0.719452 16.9373 -6.23739 -8.76496 -178.97 -6.61164 2.16792 -3.7629 -5.65217 -2.66109 11.6046 74.2576 -8.61441 -0.965267 26.367 -3.60229 177.613 -3.56139 0.967402 2.43912 -13.3576 2.70967 -14.2252 77.49 11.1495 0.963537 26.3682 3.55537 
